<svg width="40" height="40" viewBox="0 0 40 40" fill="none" xmlns="http://www.w3.org/2000/svg">
<path d="M7.23684 12.5474L8.33158 11.4316C9.55263 10.2105 11.5737 10.2105 12.8368 11.5158L12.8789 11.5789C13.9105 12.6316 15.2789 13.1368 16.7737 13.2842C18.8158 13.4737 20.7947 14.5684 22.1 16.5474C23.5316 18.8211 23.5105 21.8526 22.0158 24.1053C21.452 24.9968 20.6939 25.7493 19.7981 26.3063C18.9023 26.8634 17.8922 27.2106 16.8432 27.322C15.7943 27.4333 14.7337 27.306 13.741 26.9495C12.7482 26.5929 11.8489 26.0164 11.1105 25.2632C9.93158 24.1053 9.2579 22.6105 9.08947 21.0526C8.92105 19.5158 8.31053 18.0632 7.23684 16.9895C6.01579 15.7895 6.01579 13.7684 7.23684 12.5474ZM16.0789 29.4737C13.6158 29.4737 11.3211 28.5263 9.61579 26.7789C8.14211 25.2632 7.21579 23.3684 6.98421 21.3053C6.92105 20.6737 6.73158 19.8526 6.22632 19.0947C4.96316 20.8421 4.20526 22.9474 4.20526 25.2632C4.20526 28.7158 5.88947 31.7684 8.47895 33.6842H35.7842V31.5789C35.7842 24 30.7526 17.5789 23.8684 15.4737C25.7421 18.4211 25.7 22.3579 23.7842 25.2632C22.1 27.8947 19.1947 29.4737 16.0789 29.4737ZM26.9 11.7053H29.5737C31.4053 11.7053 33.0053 12.9895 33.0053 15.2842V16.8421H35.6368V14.7368C35.6368 11.5789 32.8368 9.17895 29.5737 9.17895H26.9C25.1526 9.17895 23.6579 7.45263 23.6579 5.68421C23.6579 3.91579 25.1526 2.61053 26.9 2.61053V0C23.6579 0 21.0474 2.61053 21.0474 5.85263C21.0474 9.09474 23.6579 11.7053 26.9 11.7053ZM5.25789 11.6842C5.38421 11.4737 5.55263 11.2632 5.74211 11.0526L6.83684 9.9579C7.02632 9.76842 7.23684 9.62105 7.44737 9.47368L4.47895 6.46316C4.77368 5.89474 4.66842 5.15789 4.20526 4.67368C3.90379 4.38022 3.49967 4.21601 3.07895 4.21601C2.65822 4.21601 2.25411 4.38022 1.95263 4.67368C1.65789 4.96842 1.51053 5.32632 1.48947 5.70526C1.11053 5.72632 0.752632 5.87368 0.457895 6.16842C-0.152632 6.77895 -0.152632 7.78947 0.457895 8.42105C0.942105 8.88421 1.65789 8.98947 2.24737 8.69474L5.25789 11.6842ZM34.5 5.03158C35.5737 3.95789 36.2474 2.50526 36.2474 0.884211H33.6158C33.6158 2.63158 32.1421 4.10526 30.3947 4.10526V6.71579C34.3105 6.71579 37.3842 9.91579 37.3842 13.8316V18.9474H39.9947V13.8316C40.0053 11.9952 39.4945 10.1935 38.5219 8.63576C37.5493 7.07805 36.1546 5.82827 34.5 5.03158ZM6.31053 40H35.7842C38.1211 40 39.9947 38.1263 39.9947 35.7895H2.1C2.1 36.9062 2.54361 37.9771 3.33323 38.7668C4.12286 39.5564 5.19383 40 6.31053 40Z" fill="#7C6A46"/>
</svg>
