<svg width="32" height="40" viewBox="0 0 32 40" fill="none" xmlns="http://www.w3.org/2000/svg">
<path d="M11.28 28.72C13.88 31.32 18.12 31.32 20.72 28.72C23.32 26.12 23.32 21.88 20.72 19.28L11.28 28.72ZM28 0.02L4 0C1.78 0 0 1.78 0 4V36C0 38.22 1.78 40 4 40H28C30.22 40 32 38.22 32 36V4C32 1.78 30.22 0.02 28 0.02ZM14 6C15.1 6 16 6.9 16 8C16 9.1 15.1 10 14 10C12.9 10 12 9.1 12 8C12 6.9 12.9 6 14 6ZM8 6C9.1 6 10 6.9 10 8C10 9.1 9.1 10 8 10C6.9 10 6 9.1 6 8C6 6.9 6.9 6 8 6ZM16 34C10.48 34 6 29.52 6 24C6 18.48 10.48 14 16 14C21.52 14 26 18.48 26 24C26 29.52 21.52 34 16 34Z" fill="#7C6A46"/>
</svg>
