<svg width="55" height="40" viewBox="0 0 55 40" fill="none" xmlns="http://www.w3.org/2000/svg">
<path d="M53.0713 18.7906C50.6615 7.89557 47.0347 2.08051 41.6548 0.492105C40.5239 0.16039 39.3509 -0.00533123 38.1724 0.000130728C36.6146 0.000130728 35.258 0.379621 33.823 0.781835C32.0937 1.26699 30.1292 1.81805 27.2649 1.81805C24.4005 1.81805 22.4349 1.26813 20.7022 0.782972C19.266 0.379621 17.9105 0.000130728 16.3573 0.000130728C15.1387 -0.00409489 13.9254 0.161098 12.7522 0.490968C7.4007 2.07256 3.77622 7.88535 1.33112 18.7838C-1.29804 30.5116 -0.00390906 37.9162 4.96014 39.6341C5.64059 39.874 6.35654 39.9977 7.07802 40C10.4787 40 13.2055 37.1675 15.0689 34.8485C17.1743 32.2239 19.6387 30.8922 27.2649 30.8922C34.0764 30.8922 36.8953 31.816 39.3302 34.8485C40.8606 36.755 42.307 38.0889 43.75 38.9286C45.669 40.0443 47.5869 40.292 49.4491 39.6523C52.3828 38.6513 54.0644 36.0051 54.4484 31.7853C54.7404 28.5494 54.2905 24.2989 53.0713 18.7906ZM21.8111 18.1793H18.1753V21.8151C18.1753 22.2973 17.9837 22.7597 17.6428 23.1006C17.3019 23.4415 16.8395 23.6331 16.3573 23.6331C15.8752 23.6331 15.4128 23.4415 15.0719 23.1006C14.731 22.7597 14.5394 22.2973 14.5394 21.8151V18.1793H10.9036C10.4215 18.1793 9.95906 17.9878 9.61814 17.6469C9.27721 17.3059 9.08568 16.8435 9.08568 16.3614C9.08568 15.8792 9.27721 15.4169 9.61814 15.0759C9.95906 14.735 10.4215 14.5435 10.9036 14.5435H14.5394V10.9076C14.5394 10.4255 14.731 9.9631 15.0719 9.62218C15.4128 9.28125 15.8752 9.08972 16.3573 9.08972C16.8395 9.08972 17.3019 9.28125 17.6428 9.62218C17.9837 9.9631 18.1753 10.4255 18.1753 10.9076V14.5435H21.8111C22.2932 14.5435 22.7556 14.735 23.0966 15.0759C23.4375 15.4169 23.629 15.8792 23.629 16.3614C23.629 16.8435 23.4375 17.3059 23.0966 17.6469C22.7556 17.9878 22.2932 18.1793 21.8111 18.1793ZM31.3552 18.6338C30.9057 18.6338 30.4664 18.5005 30.0927 18.2508C29.719 18.0011 29.4277 17.6462 29.2558 17.231C29.0838 16.8158 29.0388 16.3589 29.1264 15.9181C29.2141 15.4773 29.4305 15.0724 29.7483 14.7546C30.0661 14.4368 30.4711 14.2203 30.9119 14.1327C31.3527 14.045 31.8096 14.09 32.2248 14.262C32.64 14.434 32.9949 14.7252 33.2446 15.0989C33.4943 15.4726 33.6276 15.912 33.6276 16.3614C33.6276 16.9641 33.3882 17.5421 32.962 17.9682C32.5358 18.3944 31.9578 18.6338 31.3552 18.6338ZM36.3544 23.6331C35.9048 23.6331 35.4652 23.4996 35.0914 23.2497C34.7176 22.9997 34.4263 22.6445 34.2545 22.229C34.0827 21.8134 34.038 21.3562 34.1261 20.9152C34.2143 20.4743 34.4313 20.0694 34.7496 19.7518C35.068 19.4343 35.4734 19.2183 35.9146 19.1312C36.3558 19.0442 36.8129 19.09 37.228 19.2629C37.6431 19.4357 37.9976 19.7279 38.2466 20.1023C38.4956 20.4768 38.628 20.9167 38.6268 21.3663C38.6253 21.968 38.3853 22.5446 37.9593 22.9695C37.5333 23.3944 36.9561 23.6331 36.3544 23.6331ZM36.3544 13.6345C35.905 13.6345 35.4657 13.5012 35.092 13.2515C34.7183 13.0019 34.427 12.647 34.255 12.2317C34.083 11.8165 34.038 11.3596 34.1257 10.9188C34.2134 10.478 34.4298 10.0731 34.7476 9.75529C35.0654 9.43749 35.4703 9.22106 35.9111 9.13338C36.3519 9.0457 36.8088 9.0907 37.2241 9.2627C37.6393 9.43469 37.9942 9.72595 38.2439 10.0996C38.4936 10.4733 38.6268 10.9127 38.6268 11.3621C38.6268 11.9648 38.3874 12.5428 37.9613 12.9689C37.5351 13.3951 36.9571 13.6345 36.3544 13.6345ZM41.3537 18.6338C40.9043 18.6338 40.4649 18.5005 40.0912 18.2508C39.7175 18.0011 39.4263 17.6462 39.2543 17.231C39.0823 16.8158 39.0373 16.3589 39.125 15.9181C39.2127 15.4773 39.4291 15.0724 39.7469 14.7546C40.0647 14.4368 40.4696 14.2203 40.9104 14.1327C41.3512 14.045 41.8081 14.09 42.2233 14.262C42.6386 14.434 42.9935 14.7252 43.2431 15.0989C43.4928 15.4726 43.6261 15.912 43.6261 16.3614C43.6261 16.9641 43.3867 17.5421 42.9605 17.9682C42.5344 18.3944 41.9564 18.6338 41.3537 18.6338Z" fill="#7C6A46"/>
</svg>
