<svg width="67" height="40" viewBox="0 0 67 40" fill="none" xmlns="http://www.w3.org/2000/svg">
<path d="M11.6667 3.33333C11.6667 1.48958 13.1562 0 15 0H16.6667C18.5104 0 20 1.48958 20 3.33333V36.6667C20 38.5104 18.5104 40 16.6667 40H15C13.1562 40 11.6667 38.5104 11.6667 36.6667V33.3333H6.66667C4.82292 33.3333 3.33333 31.8438 3.33333 30V23.3333C1.48958 23.3333 0 21.8438 0 20C0 18.1562 1.48958 16.6667 3.33333 16.6667V10C3.33333 8.15625 4.82292 6.66667 6.66667 6.66667H11.6667V3.33333ZM55 3.33333V6.66667H60C61.8438 6.66667 63.3333 8.15625 63.3333 10V16.6667C65.1771 16.6667 66.6667 18.1562 66.6667 20C66.6667 21.8438 65.1771 23.3333 63.3333 23.3333V30C63.3333 31.8438 61.8438 33.3333 60 33.3333H55V36.6667C55 38.5104 53.5104 40 51.6667 40H50C48.1562 40 46.6667 38.5104 46.6667 36.6667V3.33333C46.6667 1.48958 48.1562 0 50 0H51.6667C53.5104 0 55 1.48958 55 3.33333ZM43.3333 16.6667V23.3333H23.3333V16.6667H43.3333Z" fill="#7C6A46"/>
</svg>
