<svg width="42" height="40" viewBox="0 0 42 40" fill="none" xmlns="http://www.w3.org/2000/svg">
<path d="M29.5236 28.6052C27.5642 30.0186 25.1746 30.7074 22.7635 30.5535H17.1546V40H11.5458V13.4317H23.1177C25.4205 13.3096 27.6885 14.0341 29.4941 15.4686C30.3366 16.2844 30.9879 17.2766 31.4013 18.3739C31.8148 19.4713 31.98 20.6467 31.8852 21.8155C32.0371 23.0525 31.9031 24.3078 31.4937 25.4849C31.0843 26.662 30.4103 27.7294 29.5236 28.6052ZM25.0956 19.0406C24.2425 18.4151 23.2001 18.1024 22.1435 18.155H17.1546V25.9779H22.1435C23.2099 26.0343 24.2601 25.6983 25.0956 25.0332C25.4691 24.6427 25.7567 24.1783 25.9398 23.6698C26.1228 23.1614 26.1973 22.6202 26.1583 22.0812C26.227 21.5268 26.1669 20.964 25.9825 20.4366C25.7982 19.9092 25.4947 19.4315 25.0956 19.0406ZM41.066 11.0996C41.2277 10.7469 41.244 10.3448 41.1114 9.98014C40.9789 9.61551 40.708 9.31775 40.3576 9.15129L20.6675 0L0.859406 9.15129C0.683018 9.2327 0.524392 9.34806 0.392585 9.49077C0.260778 9.63348 0.158371 9.80076 0.0912112 9.98305C0.0240514 10.1653 -0.00654594 10.3591 0.00116619 10.5532C0.00887832 10.7473 0.0547489 10.938 0.136159 11.1144C0.217569 11.2908 0.332923 11.4494 0.475637 11.5812C0.618351 11.713 0.785629 11.8154 0.967919 11.8826C1.15021 11.9497 1.34394 11.9803 1.53806 11.9726C1.73217 11.9649 1.92287 11.919 2.09926 11.8376L20.6675 3.24723L39.2358 11.8081C39.5885 11.9698 39.9907 11.9861 40.3553 11.8535C40.7199 11.7209 41.0177 11.4501 41.1841 11.0996H41.066Z" fill="#7C6A46"/>
</svg>
