<svg width="23" height="20" viewBox="0 0 23 20" fill="none" xmlns="http://www.w3.org/2000/svg">
<path d="M16.6667 17.7778H18.8889V8.88889H12.2222V17.7778H14.4444V11.1111H16.6667V17.7778ZM1.11111 17.7778V1.11111C1.11111 0.816426 1.22817 0.533811 1.43655 0.325437C1.64492 0.117063 1.92754 0 2.22222 0H17.7778C18.0725 0 18.3551 0.117063 18.5635 0.325437C18.7718 0.533811 18.8889 0.816426 18.8889 1.11111V6.66667H21.1111V17.7778H22.2222V20H0V17.7778H1.11111ZM5.55556 8.88889V11.1111H7.77778V8.88889H5.55556ZM5.55556 13.3333V15.5556H7.77778V13.3333H5.55556ZM5.55556 4.44444V6.66667H7.77778V4.44444H5.55556Z" fill="#1C1C1C"/>
</svg>
