<svg width="55" height="40" viewBox="0 0 55 40" fill="none" xmlns="http://www.w3.org/2000/svg">
<path d="M36.7673 0C36.36 0 35.1855 0.534546 35.1855 0.534546L23.1055 6.64364C21.4945 7.28 20.8582 9.84727 21.8255 11.1309L25.3527 16.2509L10.9164 23.6291L18.1818 29.0836L27.28 23.6291L36.3709 29.0836L40.0145 25.44L29.1055 10.8945L38.4036 5.33091C40.3236 4.36364 40.0145 2.77091 40.0145 1.80364C40 1.04 38.7055 0 36.7673 0ZM44.5527 10.9091C43.7168 10.9084 42.8889 11.0723 42.1164 11.3915C41.3438 11.7108 40.6417 12.1791 40.0501 12.7696C39.4585 13.3602 38.989 14.0615 38.6684 14.8336C38.3479 15.6056 38.1825 16.4332 38.1818 17.2691C38.1811 18.105 38.345 18.9329 38.6643 19.7055C38.9835 20.478 39.4518 21.1802 40.0424 21.7717C40.6329 22.3633 41.3343 22.8328 42.1063 23.1534C42.8783 23.4739 43.7059 23.6393 44.5418 23.64C46.23 23.6414 47.8497 22.9722 49.0445 21.7795C50.2393 20.5867 50.9113 18.9682 50.9127 17.28C50.9142 15.5918 50.2449 13.9721 49.0522 12.7773C47.8595 11.5826 46.241 10.9105 44.5527 10.9091ZM9.09091 29.0909L0 34.5455V40L9.09091 34.5455L18.1818 40L27.28 34.5455L36.3709 40L43.6364 34.5455L54.5455 40V34.5455L43.6364 29.0909L36.3709 34.5455L27.28 29.0909L18.1818 34.5455L9.09091 29.0909Z" fill="#7C6A46"/>
</svg>
