<svg width="57" height="40" viewBox="0 0 57 40" fill="none" xmlns="http://www.w3.org/2000/svg">
<path d="M14.9412 26.7059L10 21.6471C12.3137 19.3333 15.0298 17.5004 18.1482 16.1482C21.2667 14.7961 24.629 14.1192 28.2353 14.1176C31.8431 14.1176 35.2063 14.8039 38.3247 16.1765C41.4431 17.549 44.1584 19.4118 46.4706 21.7647L41.5294 26.7059C39.8039 24.9804 37.8039 23.6275 35.5294 22.6471C33.2549 21.6667 30.8235 21.1765 28.2353 21.1765C25.6471 21.1765 23.2157 21.6667 20.9412 22.6471C18.6667 23.6275 16.6667 24.9804 14.9412 26.7059ZM4.94118 16.7059L0 11.7647C3.60784 8.07843 7.82353 5.19608 12.6471 3.11765C17.4706 1.03922 22.6667 0 28.2353 0C33.8039 0 39 1.03922 43.8235 3.11765C48.6471 5.19608 52.8627 8.07843 56.4706 11.7647L51.5294 16.7059C48.5098 13.6863 45.0094 11.3231 41.0282 9.61647C37.0471 7.9098 32.7827 7.05726 28.2353 7.05882C23.6863 7.05882 19.4212 7.91216 15.44 9.61882C11.4588 11.3255 7.95922 13.6878 4.94118 16.7059ZM28.2353 40L36.5294 31.6471C35.4706 30.5882 34.2353 29.7545 32.8235 29.1459C31.4118 28.5373 29.8824 28.2337 28.2353 28.2353C26.5882 28.2353 25.0588 28.5396 23.6471 29.1482C22.2353 29.7569 21 30.5898 19.9412 31.6471L28.2353 40Z" fill="#7C6A46"/>
</svg>
